<?xml version="1.0" encoding="utf-8"?>
<!-- Generator: Adobe Illustrator 16.0.4, SVG Export Plug-In . SVG Version: 6.00 Build 0)  -->
<!DOCTYPE svg PUBLIC "-//W3C//DTD SVG 1.1//EN" "http://www.w3.org/Graphics/SVG/1.1/DTD/svg11.dtd">
<svg version="1.1" id="Layer_1" xmlns="http://www.w3.org/2000/svg" xmlns:xlink="http://www.w3.org/1999/xlink" x="0px" y="0px"
	 width="144px" height="144px" viewBox="0 0 144 144" enable-background="new 0 0 144 144" xml:space="preserve">
<rect x="-1.231" y="-1.211" fill="#0E9948" width="146.215" height="146.415"/>
<g>
	<circle fill="#FFFFFF" cx="72" cy="73.893" r="45.998"/>
	<g>
		<path fill="#0E9948" d="M56.38,50.314c1.938,0,3.732,0.198,5.384,0.595c1.65,0.396,3.07,1.057,4.26,1.981
			c1.188,0.924,2.112,2.158,2.773,3.698c0.66,1.542,0.991,3.435,0.991,5.681c0,2.554-0.595,4.744-1.783,6.57
			c-1.189,1.828-2.973,3.071-5.35,3.731v0.133c2.641,0.353,4.731,1.476,6.273,3.369c1.541,1.893,2.312,4.424,2.312,7.594
			c0,1.85-0.243,3.611-0.727,5.285c-0.484,1.674-1.31,3.137-2.477,4.393c-1.167,1.254-2.686,2.256-4.557,3.004
			c-1.872,0.748-4.193,1.123-6.968,1.123H40.464V50.314H56.38z M52.683,69.666c2.641,0,4.566-0.473,5.778-1.42
			c1.211-0.947,1.816-2.543,1.816-4.788s-0.552-3.831-1.651-4.755c-1.101-0.926-2.84-1.388-5.217-1.388h-3.436v12.351H52.683z
			 M53.673,90.469c2.289,0,4.139-0.506,5.548-1.518c1.408-1.014,2.113-2.885,2.113-5.615c0-1.363-0.188-2.498-0.562-3.4
			c-0.375-0.902-0.882-1.629-1.52-2.18c-0.639-0.549-1.397-0.936-2.278-1.156c-0.881-0.219-1.849-0.33-2.906-0.33h-4.095v14.199
			H53.673z"/>
		<path fill="#0E9948" d="M103.536,50.314v7.793H86.694v11.097h15.852v7.792H86.694v20.475h-9.511V50.314H103.536z"/>
	</g>
	<circle fill="#FFFFFF" cx="103.584" cy="34.07" r="9.96"/>
	<circle fill="#FFFFFF" cx="40.416" cy="34.07" r="9.96"/>
</g>
</svg>
